<?xml version="1.0" encoding="UTF-8" standalone="no"?>
<!-- Created with Inkscape (http://www.inkscape.org/) -->
<svg
   xmlns:dc="http://purl.org/dc/elements/1.1/"
   xmlns:cc="http://web.resource.org/cc/"
   xmlns:rdf="http://www.w3.org/1999/02/22-rdf-syntax-ns#"
   xmlns:svg="http://www.w3.org/2000/svg"
   xmlns="http://www.w3.org/2000/svg"
   xmlns:sodipodi="http://sodipodi.sourceforge.net/DTD/sodipodi-0.dtd"
   xmlns:inkscape="http://www.inkscape.org/namespaces/inkscape"
   width="237.52196"
   height="244.55246"
   id="svg2"
   sodipodi:version="0.32"
   inkscape:version="0.45.1"
   version="1.0"
   sodipodi:docbase="/home/odysseus/Images/openclipartCREATIONS"
   sodipodi:docname="blackflower.svg"
   inkscape:output_extension="org.inkscape.output.svg.inkscape">
  <defs
     id="defs4" />
  <sodipodi:namedview
     id="base"
     pagecolor="#ffffff"
     bordercolor="#666666"
     borderopacity="1.0"
     inkscape:pageopacity="0.0"
     inkscape:pageshadow="2"
     inkscape:zoom="2.9155299"
     inkscape:cx="118.76098"
     inkscape:cy="122.27623"
     inkscape:document-units="mm"
     inkscape:current-layer="layer1"
     inkscape:window-width="1280"
     inkscape:window-height="926"
     inkscape:window-x="0"
     inkscape:window-y="24" />
  <metadata
     id="metadata7">
    <rdf:RDF>
      <cc:Work
         rdf:about="">
        <dc:format>image/svg+xml</dc:format>
        <dc:type
           rdf:resource="http://purl.org/dc/dcmitype/StillImage" />
      </cc:Work>
    </rdf:RDF>
  </metadata>
  <g
     inkscape:label="Calque 1"
     inkscape:groupmode="layer"
     id="layer1"
     transform="translate(-234.44547,-298.20755)">
    <path class="petal"
       style="fill-rule:evenodd;stroke:none;stroke-width:1px;stroke-linecap:butt;stroke-linejoin:miter;stroke-opacity:1"
       d="M 339.53219,395.80823 C 337.14884,385.90583 331.76063,369.36711 327.65169,357.04028 C 327.08854,355.35084 326.40111,353.7054 325.77582,352.03796 C 323.36974,345.62175 322.94336,338.83227 321.39879,332.65399 C 320.32628,328.36397 321.86017,323.05914 323.27466,319.52291 C 325.95909,312.81183 328.58549,308.58447 333.27929,303.89067 C 335.98461,301.18535 338.93137,299.9765 343.28392,298.88836 C 347.11088,297.93162 351.58581,298.26307 355.78971,298.26307 C 359.99317,298.26307 365.79454,305.76674 368.2955,308.2677 C 371.39901,311.3712 372.97431,311.99772 375.17369,316.39646 C 377.2797,320.6085 376.54074,325.6164 377.67484,330.15283 C 378.4773,333.36267 377.67484,338.06489 377.67484,341.40804 C 377.67484,346.04801 376.28831,350.70591 375.17369,355.16441 C 374.03495,359.71935 373.76723,363.91668 372.67253,368.29549 C 371.73773,372.03466 371.09584,375.22753 370.17137,378.92541 C 369.23341,382.67723 367.8238,383.62054 366.41963,386.42888 C 365.05168,389.16478 364.59388,392.4813 363.91847,395.18294 C 363.12472,398.35797 359.68622,398.86229 357.04029,400.18525 C 354.89824,401.25628 349.7061,399.91493 348.28624,399.55996 C 345.70107,398.91367 342.465,396.98135 339.53219,395.80823 z "
       id="path2172" />
    <path
       style="fill:#ffffff;fill-opacity:0.20784314;fill-rule:evenodd;stroke:none;stroke-width:1px;stroke-linecap:butt;stroke-linejoin:miter;stroke-opacity:1"
       d="M 348.25087,393.70694 C 346.67813,384.34883 343.12255,368.71918 340.41111,357.06989 C 340.0395,355.4733 339.58588,353.91831 339.17325,352.34251 C 337.58552,346.27898 337.30416,339.86268 336.28492,334.02399 C 335.57718,329.96978 336.58937,324.95653 337.52277,321.61467 C 339.2942,315.27247 341.02732,311.27747 344.12469,306.84166 C 345.90988,304.28504 347.85441,303.14264 350.72659,302.11431 C 353.25194,301.21014 356.20488,301.5234 358.97897,301.5234 C 361.75277,301.5234 365.58101,308.61461 367.23135,310.9781 C 369.27931,313.91101 370.31883,314.5031 371.77017,318.66006 C 373.15988,322.64059 372.67227,327.37324 373.42063,331.66032 C 373.95017,334.69372 373.42063,339.13749 373.42063,342.29688 C 373.42063,346.68182 372.50569,351.08369 371.77017,355.29713 C 371.01872,359.6017 370.84206,363.56831 370.11969,367.70645 C 369.50283,371.24009 369.07923,374.25747 368.46922,377.7521 C 367.85027,381.2977 366.92007,382.18916 365.99349,384.84313 C 365.09081,387.42866 364.78871,390.56289 364.34301,393.11602 C 363.81924,396.11653 361.5502,396.59313 359.80421,397.84339 C 358.3907,398.85554 354.96449,397.58792 354.02755,397.25247 C 352.32162,396.64169 350.1862,394.81559 348.25087,393.70694 z "
       id="path3146" />
    <path class="petal"
       style="fill-rule:evenodd;stroke:none;stroke-width:1px;stroke-linecap:butt;stroke-linejoin:miter;stroke-opacity:1"
       d="M 325.41199,411.96387 C 317.00217,406.2182 301.91233,397.5661 290.59646,391.17976 C 289.04558,390.30449 287.43203,389.54522 285.84981,388.72795 C 279.76154,385.58313 274.89117,380.83357 269.60145,377.28735 C 265.92841,374.82496 263.50777,369.86164 262.18489,366.29013 C 259.67431,359.5121 258.78668,354.61509 259.11951,347.98541 C 259.31135,344.16432 260.68602,341.29117 263.1843,337.5646 C 265.38091,334.28803 268.92216,331.53224 272.04008,328.71242 C 275.15766,325.8929 284.49356,327.56682 288.026,327.74416 C 292.4095,327.96422 293.9981,327.37224 298.57983,329.1594 C 302.96708,330.87071 305.77813,335.0806 309.66213,337.68443 C 312.41033,339.52682 314.96924,343.55258 317.2117,346.0321 C 320.32402,349.47344 322.42002,353.8581 324.58393,357.91249 C 326.79464,362.05459 329.4115,365.34721 331.53673,369.32913 C 333.35151,372.7294 335.0171,375.52802 336.81185,378.89073 C 338.63277,382.3025 338.22004,383.94764 339.06233,386.97237 C 339.8829,389.91908 341.76797,392.68593 343.07919,395.1427 C 344.62018,398.02995 342.40822,400.7104 341.3332,403.4664 C 340.46291,405.69756 335.71232,408.18541 334.42115,408.87453 C 332.07029,410.12923 328.37406,410.86672 325.41199,411.96387 z "
       id="path4123" />
    <path
       style="fill:#ffffff;fill-opacity:0.20784314;fill-rule:evenodd;stroke:none;stroke-width:1px;stroke-linecap:butt;stroke-linejoin:miter;stroke-opacity:1"
       d="M 330.46893,404.55723 C 323.0254,398.67152 309.90454,389.4644 300.07963,382.64318 C 298.73308,381.7083 297.35361,380.85928 295.99059,379.96733 C 290.74583,376.53517 286.23333,371.9651 281.56102,368.31838 C 278.31669,365.78621 275.7047,361.38909 274.15538,358.28443 C 271.21509,352.39239 269.8208,348.2669 269.14266,342.89938 C 268.7518,339.80577 269.42772,337.65417 270.86817,334.96493 C 272.13467,332.60042 274.5349,330.85204 276.59237,328.99128 C 278.64962,327.13072 286.24544,329.82223 289.05479,330.46818 C 292.54099,331.26974 293.70912,331.0116 297.57388,333.1212 C 301.27458,335.14128 304.08742,338.97842 307.51807,341.65606 C 309.9455,343.55065 312.53347,347.20167 314.65268,349.5449 C 317.59393,352.79708 319.86796,356.67553 322.14866,360.29388 C 324.47868,363.99051 327.00831,367.05093 329.24826,370.60461 C 331.16098,373.63918 332.87076,376.16122 334.7624,379.16226 C 336.6816,382.2071 336.58965,383.49221 337.68262,386.0821 C 338.7474,388.6052 340.62567,391.13241 342.00765,393.32495 C 343.63181,395.90167 342.26862,397.77714 341.81229,399.87557 C 341.44284,401.57438 338.05145,402.9324 337.13154,403.31207 C 335.45661,404.00335 332.64795,404.08134 330.46893,404.55723 z "
       id="path4125" />
    <path class="petal"
       style="fill-rule:evenodd;stroke:none;stroke-width:1px;stroke-linecap:butt;stroke-linejoin:miter;stroke-opacity:1"
       d="M 332.01743,433.09351 C 322.10887,435.4511 305.5562,440.79629 293.21873,444.87317 C 291.52783,445.43192 289.88061,446.11507 288.21155,446.73602 C 281.7891,449.12541 274.99854,449.53414 268.81626,451.06264 C 264.52347,452.12399 259.22264,450.57631 255.6901,449.15263 C 248.98603,446.45076 244.76551,443.81338 240.08393,439.10739 C 237.38565,436.39505 236.18447,433.44516 235.10765,429.08979 C 234.16086,425.26036 234.50395,420.7863 234.51488,416.58242 C 234.52581,412.37897 242.04453,406.59713 244.55199,404.10268 C 247.66355,401.00725 248.29416,399.43359 252.69861,397.24565 C 256.91611,395.1506 261.92207,395.90258 266.46143,394.78028 C 269.67335,393.98617 274.37346,394.80085 277.7166,394.80954 C 282.35656,394.82161 287.01084,396.22024 291.46642,397.34645 C 296.01839,398.49703 300.21501,398.77566 304.59096,399.88174 C 308.32768,400.82626 311.51887,401.47645 315.21434,402.41053 C 318.9637,403.35825 319.90335,404.7703 322.70803,406.18177 C 325.44036,407.55683 328.75568,408.02325 331.45555,408.70568 C 334.62851,409.50769 335.12389,412.94749 336.43996,415.59685 C 337.50542,417.74167 336.15057,422.93031 335.79191,424.34924 C 335.1389,426.93272 333.19818,430.16376 332.01743,433.09351 z "
       id="path4129" />
    <path
       style="fill:#ffffff;fill-opacity:0.20784314;fill-rule:evenodd;stroke:none;stroke-width:1px;stroke-linecap:butt;stroke-linejoin:miter;stroke-opacity:1"
       d="M 329.93882,424.36939 C 320.57665,425.9178 304.93781,429.43273 293.28151,432.11387 C 291.68396,432.48133 290.1278,432.9309 288.55093,433.33943 C 282.48329,434.91139 276.06628,435.17607 270.22496,436.18012 C 266.16893,436.87732 261.15832,435.8521 257.8189,434.91001 C 251.48133,433.1221 247.49085,431.3786 243.06311,428.2697 C 240.51114,426.47787 239.3738,424.53038 238.35294,421.65553 C 237.45534,419.12784 237.77628,416.17573 237.78349,413.40165 C 237.7907,410.62786 244.89184,406.81807 247.25961,405.17388 C 250.19784,403.13355 250.79263,402.09557 254.95335,400.65505 C 258.93748,399.27569 263.66884,399.7756 267.95786,399.03839 C 270.99262,398.51674 275.435,399.05783 278.59438,399.06605 C 282.9793,399.07745 287.37878,400.00383 291.59029,400.75031 C 295.8929,401.51294 299.85903,401.69992 303.99528,402.43304 C 307.5273,403.05909 310.54357,403.49053 314.0366,404.10963 C 317.58058,404.73779 318.46962,405.67031 321.12117,406.60379 C 323.70435,407.51319 326.83778,407.82343 329.38974,408.27577 C 332.38888,408.80734 332.85958,411.07761 334.1053,412.82685 C 335.11377,414.24298 333.83724,417.66589 333.49936,418.60195 C 332.88415,420.30629 331.0525,422.43695 329.93882,424.36939 z "
       id="path4131" />
    <path class="petal"
       style="fill-rule:evenodd;stroke:none;stroke-width:1px;stroke-linecap:butt;stroke-linejoin:miter;stroke-opacity:1"
       d="M 361.64927,394.83378 C 366.18818,385.71588 372.69063,369.58268 377.46591,357.49836 C 378.12038,355.84215 378.65136,354.13977 379.24408,352.46048 C 381.52485,345.99866 385.56213,340.52334 388.34995,334.79753 C 390.28573,330.82169 394.87047,327.74368 398.22699,325.94382 C 404.59701,322.52802 409.32616,320.97765 415.93891,320.39877 C 419.75023,320.06512 422.78466,321.03307 426.81845,322.99707 C 430.36514,324.7239 433.58025,327.85407 436.80076,330.55612 C 440.02094,333.25789 439.64227,342.7351 439.95071,346.25852 C 440.33347,350.63081 441.13758,352.1233 439.99519,356.90672 C 438.90127,361.48711 435.11636,364.84858 433.06938,369.05278 C 431.62101,372.02754 427.98392,375.11403 425.83512,377.67514 C 422.85278,381.22972 418.79674,383.90684 415.07716,386.60598 C 411.27712,389.36349 408.3742,392.40689 404.7211,395.05778 C 401.60162,397.32144 399.05768,399.35485 395.97265,401.59351 C 392.84263,403.86482 391.15645,403.68145 388.27569,404.93033 C 385.46924,406.14699 382.98684,408.39345 380.73295,410.029 C 378.08413,411.95114 375.12582,410.1274 372.2485,409.44022 C 369.91913,408.88391 366.80369,404.51909 365.94413,403.33455 C 364.37909,401.17783 363.142,397.61754 361.64927,394.83378 z "
       id="path4135" />
    <path
       style="fill:#ffffff;fill-opacity:0.20784314;fill-rule:evenodd;stroke:none;stroke-width:1px;stroke-linecap:butt;stroke-linejoin:miter;stroke-opacity:1"
       d="M 369.67905,398.82795 C 374.48912,390.64803 381.8112,376.38917 387.22158,365.72214 C 387.96311,364.26017 388.61507,362.77737 389.3118,361.30496 C 391.9928,355.63932 395.90132,350.54309 398.87331,345.41509 C 400.93697,341.85435 404.93464,338.6644 407.79767,336.70421 C 413.23116,332.98418 417.12664,331.03766 422.35058,329.63032 C 425.36144,328.81917 427.58537,329.19385 430.44664,330.25216 C 432.96241,331.18266 435.02324,333.32064 437.14841,335.10368 C 439.27336,336.88653 437.64822,344.77954 437.39338,347.65091 C 437.07716,351.21407 437.49294,352.33581 435.9329,356.45321 C 434.43905,360.39584 431.0236,363.708 428.84139,367.47325 C 427.29735,370.13743 424.03545,373.20134 422.00476,375.62167 C 419.18635,378.98088 415.65614,381.76498 412.38449,384.52004 C 409.04207,387.33468 406.3572,390.25987 403.14403,392.9657 C 400.40023,395.27626 398.1363,397.31554 395.42282,399.60061 C 392.66973,401.91899 391.38414,402.00403 388.96847,403.44162 C 386.6151,404.84214 384.36915,407.04903 382.38669,408.71845 C 380.05687,410.68042 378.01227,409.58711 375.87111,409.42268 C 374.13769,409.28953 372.32771,406.11625 371.82555,405.25705 C 370.91125,403.69266 370.44908,400.92119 369.67905,398.82795 z "
       id="path4137" />
    <path class="petal"
       style="fill-rule:evenodd;stroke:none;stroke-width:1px;stroke-linecap:butt;stroke-linejoin:miter;stroke-opacity:1"
       d="M 374.13891,406.03651 C 383.99576,403.47127 400.43249,397.77952 412.68159,393.44436 C 414.36038,392.8502 415.99289,392.1326 417.64853,391.47672 C 424.01936,388.95293 430.79984,388.40164 436.94864,386.7436 C 441.21819,385.5923 446.55036,387.02827 450.11203,388.37742 C 456.87139,390.93786 461.14638,393.48599 465.9258,398.09259 C 468.68046,400.74765 469.94335,403.67166 471.11143,408.00344 C 472.13846,411.81214 471.88944,416.29241 471.96683,420.4956 C 472.04421,424.69835 464.64861,430.63687 462.19411,433.18344 C 459.14827,436.34356 458.55085,437.93013 454.19334,440.21011 C 450.02079,442.3933 445.00013,441.74665 440.48535,442.96407 C 437.29082,443.82548 432.57463,443.10972 429.23204,443.17126 C 424.59286,443.25668 419.91022,441.95613 415.43196,440.92377 C 410.85683,439.86908 406.65528,439.67867 402.25706,438.66476 C 398.50132,437.79895 395.29717,437.21595 391.5829,436.35971 C 387.81445,435.49097 386.84535,434.09897 384.01164,432.74673 C 381.25102,431.42938 377.92663,431.03271 375.21302,430.40715 C 372.02391,429.67198 371.45638,426.24335 370.08494,423.62222 C 368.97465,421.50025 370.2202,416.28429 370.54897,414.85814 C 371.14756,412.26151 373.01998,408.99042 374.13891,406.03651 z "
       id="path4141" />
    <path
       style="fill:#ffffff;fill-opacity:0.20784314;fill-rule:evenodd;stroke:none;stroke-width:1px;stroke-linecap:butt;stroke-linejoin:miter;stroke-opacity:1"
       d="M 376.40035,414.71503 C 385.72792,412.97029 401.28947,409.12759 412.88687,406.20216 C 414.47635,405.80122 416.02273,405.31905 417.59066,404.87749 C 423.62394,403.1784 430.03397,402.77898 435.85291,401.65243 C 439.8934,400.87017 444.92444,401.7899 448.28291,402.66163 C 454.65665,404.31601 458.68288,405.97529 463.17495,408.99048 C 465.764,410.7283 466.94201,412.65147 468.02304,415.50423 C 468.97354,418.01251 468.71469,420.97072 468.76576,423.74434 C 468.81682,426.51767 461.79729,430.4758 459.46458,432.16937 C 456.56986,434.27097 455.99701,435.32122 451.86747,436.84884 C 447.9132,438.31159 443.17237,437.91118 438.8998,438.73833 C 435.87666,439.32362 431.42389,438.87598 428.26504,438.93414 C 423.88084,439.01486 419.46287,438.18111 415.23661,437.52327 C 410.91893,436.85119 406.94974,436.74758 402.79901,436.10151 C 399.25461,435.54981 396.22994,435.18182 392.72468,434.63625 C 389.16828,434.08267 388.25985,433.16904 385.58927,432.29147 C 382.98756,431.43654 379.8483,431.19219 377.2874,430.79357 C 374.27776,430.32512 373.75947,428.06524 372.47728,426.34256 C 371.43928,424.94792 372.64361,421.49896 372.96176,420.556 C 373.54103,418.83912 375.32751,416.67044 376.40035,414.71503 z "
       id="path4143" />
    <path class="petal"
       style="fill-rule:evenodd;stroke:none;stroke-width:1px;stroke-linecap:butt;stroke-linejoin:miter;stroke-opacity:1"
       d="M 340.18898,445.8896 C 338.40135,455.91667 334.01059,472.7477 330.64526,485.29794 C 330.18402,487.018 329.5961,488.70156 329.07152,490.40337 C 327.05297,496.95184 327.03287,503.75466 325.86008,510.01417 C 325.04572,514.36059 326.89373,519.56433 328.51691,523.00976 C 331.59739,529.54852 334.47159,533.61146 339.43737,538.01653 C 342.29944,540.55543 345.31314,541.58612 349.72292,542.41234 C 353.60019,543.13879 358.04733,542.54065 362.24373,542.28956 C 366.43968,542.03849 371.78251,534.20171 374.12963,531.55584 C 377.04223,528.27251 378.57729,527.55302 380.51001,523.03076 C 382.36068,518.70046 381.32393,513.74563 382.18505,509.14956 C 382.79436,505.89753 381.71247,501.25163 381.51279,497.91445 C 381.23565,493.28276 379.57338,488.716 378.19445,484.33203 C 376.78569,479.85324 376.26774,475.67939 374.91346,471.37379 C 373.75699,467.69713 372.92554,464.5483 371.78185,460.91224 C 370.62147,457.22314 369.15804,456.36571 367.58864,453.64625 C 366.05972,450.99694 365.40464,447.71368 364.56907,445.05721 C 363.5871,441.93526 360.12462,441.63722 357.40439,440.47466 C 355.20219,439.53348 350.09944,441.18256 348.70332,441.6217 C 346.16137,442.42124 343.04649,444.5434 340.18898,445.8896 z "
       id="path4165" />
    <path
       style="fill:#ffffff;fill-opacity:0.20784314;fill-rule:evenodd;stroke:none;stroke-width:1px;stroke-linecap:butt;stroke-linejoin:miter;stroke-opacity:1"
       d="M 349.0176,447.46638 C 348.00662,456.90172 345.39093,472.71584 343.38013,484.50628 C 343.10454,486.12221 342.74461,487.70152 342.42684,489.29915 C 341.20411,495.44669 341.30649,501.86834 340.63781,507.75748 C 340.17348,511.84673 341.4833,516.79057 342.61464,520.07071 C 344.76172,526.29578 346.73036,530.18013 350.08715,534.42302 C 352.02185,536.86845 354.03114,537.89267 356.95962,538.74761 C 359.53446,539.49933 362.46342,539.01025 365.23256,538.84456 C 368.00141,538.67888 371.39926,531.37168 372.90549,528.91384 C 374.77461,525.86384 375.77691,525.21072 376.97737,520.97449 C 378.12685,516.91806 377.35743,512.22299 377.84839,507.89886 C 378.19581,504.83925 377.40179,500.43504 377.21308,497.28129 C 376.95118,492.90418 375.77495,488.56482 374.78908,484.40284 C 373.78187,480.15083 373.3686,476.20186 372.40036,472.11425 C 371.57354,468.62377 370.97047,465.63707 370.15282,462.18512 C 369.3232,458.68282 368.34142,457.84851 367.25797,455.25462 C 366.20247,452.72762 365.71371,449.61703 365.11631,447.09508 C 364.41426,444.13121 362.1208,443.79099 360.30325,442.64725 C 358.83181,441.72133 355.48743,443.19133 354.5722,443.58215 C 352.9058,444.29373 350.88326,446.24412 349.0176,447.46638 z "
       id="path4167" />
    <path class="petal"
       style="fill-rule:evenodd;stroke:none;stroke-width:1px;stroke-linecap:butt;stroke-linejoin:miter;stroke-opacity:1"
       d="M 325.69641,427.17775 C 317.28659,432.92342 302.19675,441.57552 290.88088,447.96186 C 289.33,448.83713 287.71645,449.5964 286.13423,450.41367 C 280.04596,453.55849 275.17559,458.30805 269.88587,461.85427 C 266.21283,464.31666 263.79219,469.27998 262.46931,472.85149 C 259.95873,479.62952 259.0711,484.52653 259.40393,491.15621 C 259.59577,494.9773 260.97044,497.85045 263.46872,501.57702 C 265.66533,504.85359 269.20658,507.60938 272.3245,510.4292 C 275.44208,513.24872 284.77798,511.5748 288.31042,511.39746 C 292.69392,511.1774 294.28252,511.76938 298.86425,509.98222 C 303.2515,508.27091 306.06255,504.06102 309.94655,501.45719 C 312.69475,499.6148 315.25366,495.58904 317.49612,493.10952 C 320.60844,489.66818 322.70444,485.28352 324.86835,481.22913 C 327.07906,477.08703 329.69592,473.79441 331.82115,469.81249 C 333.63593,466.41222 335.30152,463.6136 337.09627,460.25089 C 338.91719,456.83912 338.50446,455.19398 339.34675,452.16925 C 340.16732,449.22254 342.05239,446.45569 343.36361,443.99892 C 344.9046,441.11167 342.69264,438.43122 341.61762,435.67522 C 340.74733,433.44406 335.99674,430.95621 334.70557,430.26709 C 332.35471,429.01239 328.65848,428.2749 325.69641,427.17775 z "
       id="path4171" />
    <path
       style="fill:#ffffff;fill-opacity:0.20784314;fill-rule:evenodd;stroke:none;stroke-width:1px;stroke-linecap:butt;stroke-linejoin:miter;stroke-opacity:1"
       d="M 330.75335,434.58439 C 323.30982,440.4701 310.18896,449.67722 300.36405,456.49844 C 299.0175,457.43332 297.63803,458.28234 296.27501,459.17429 C 291.03025,462.60645 286.51775,467.17652 281.84544,470.82324 C 278.60111,473.35541 275.98912,477.75253 274.4398,480.85719 C 271.49951,486.74923 270.10522,490.87472 269.42708,496.24224 C 269.03622,499.33585 269.71214,501.48745 271.15259,504.17669 C 272.41909,506.5412 274.81932,508.28958 276.87679,510.15034 C 278.93404,512.0109 286.52986,509.31939 289.33921,508.67344 C 292.82541,507.87188 293.99354,508.13002 297.8583,506.02042 C 301.559,504.00034 304.37184,500.1632 307.80249,497.48556 C 310.22992,495.59097 312.81789,491.93995 314.9371,489.59672 C 317.87835,486.34454 320.15238,482.46609 322.43308,478.84774 C 324.7631,475.15111 327.29273,472.09069 329.53268,468.53701 C 331.4454,465.50244 333.15518,462.9804 335.04682,459.97936 C 336.96602,456.93452 336.87407,455.64941 337.96704,453.05952 C 339.03182,450.53642 340.91009,448.00921 342.29207,445.81667 C 343.91623,443.23995 342.55304,441.36448 342.09671,439.26605 C 341.72726,437.56724 338.33587,436.20922 337.41596,435.82955 C 335.74103,435.13827 332.93237,435.06028 330.75335,434.58439 z "
       id="path4173" />
    <path class="petal"
       style="fill-rule:evenodd;stroke:none;stroke-width:1px;stroke-linecap:butt;stroke-linejoin:miter;stroke-opacity:1"
       d="M 364.21126,449.42742 C 369.85154,457.90829 378.31466,473.10493 384.5593,484.4996 C 385.41515,486.06129 386.15423,487.68419 386.95169,489.27648 C 390.02029,495.40352 394.70871,500.33278 398.18864,505.66634 C 400.605,509.36982 405.53773,511.85221 409.09246,513.21955 C 415.83863,515.81452 420.72418,516.76318 427.35751,516.51311 C 431.18069,516.36897 434.07077,515.03025 437.82822,512.57867 C 441.13195,510.42312 443.93171,506.91653 446.79022,503.83405 C 449.64843,500.75189 448.09114,491.39583 447.95789,487.86145 C 447.79255,483.47555 448.40431,481.89445 446.67446,477.29078 C 445.01802,472.88252 440.84354,470.01916 438.28838,466.10297 C 436.48043,463.33199 432.48691,460.72304 430.03557,458.44981 C 426.63334,455.29479 422.27517,453.14425 418.24809,450.92991 C 414.13391,448.66768 410.8742,446.00994 406.91911,443.83519 C 403.54175,441.97812 400.76413,440.27774 397.42408,438.44117 C 394.0353,436.57781 392.38514,436.96998 389.37115,436.09001 C 386.43491,435.23273 383.6918,433.31329 381.25159,431.97151 C 378.38379,430.39461 375.67594,432.57295 372.90675,433.61349 C 370.6649,434.45587 368.11796,439.17505 367.41278,440.45752 C 366.12884,442.79254 365.34529,446.47928 364.21126,449.42742 z "
       id="path4177" />
    <path
       style="fill:#ffffff;fill-opacity:0.20784314;fill-rule:evenodd;stroke:none;stroke-width:1px;stroke-linecap:butt;stroke-linejoin:miter;stroke-opacity:1"
       d="M 371.68042,444.46331 C 377.47279,451.97971 386.51547,465.21444 393.21355,475.1237 C 394.13156,476.48181 394.9633,477.87176 395.83817,479.24581 C 399.20462,484.533 403.71802,489.10216 407.30615,493.81962 C 409.79764,497.09529 414.16183,499.76195 417.24691,501.34989 C 423.1018,504.36348 427.20957,505.80914 432.56821,506.55421 C 435.6567,506.98364 437.81657,506.33462 440.52357,504.92784 C 442.9037,503.69095 444.6819,501.31272 446.56819,499.27863 C 448.45428,497.24476 445.85776,489.61595 445.24692,486.79875 C 444.48893,483.30282 444.76162,482.138 442.70041,478.24722 C 440.72667,474.5216 436.92492,471.6611 434.29031,468.1973 C 432.42615,465.74641 428.80772,463.11308 426.49111,460.96481 C 423.27588,457.9832 419.42611,455.66095 415.8365,453.33527 C 412.16924,450.95931 409.14063,448.39169 405.61517,446.10757 C 402.60471,444.15712 400.1042,442.41601 397.127,440.48707 C 394.10634,438.53002 392.82018,438.60593 390.24413,437.48073 C 387.73452,436.38454 385.23094,434.47488 383.05581,433.06565 C 380.49956,431.40946 378.60723,432.74915 376.50327,433.17925 C 374.79998,433.52747 373.39975,436.90166 373.00863,437.81676 C 372.29651,439.48293 372.18347,442.2904 371.68042,444.46331 z "
       id="path4179" />
    <path
       sodipodi:type="arc"
       style="fill:#ffcc00;fill-opacity:1;stroke:none;stroke-opacity:1"
       id="path2166"
       sodipodi:cx="366.73227"
       sodipodi:cy="431.13708"
       sodipodi:rx="25.949514"
       sodipodi:ry="25.949514"
       d="M 392.68178 431.13708 A 25.949514 25.949514 0 1 1  340.78275,431.13708 A 25.949514 25.949514 0 1 1  392.68178 431.13708 z"
       transform="matrix(1.3855422,0,0,1.3855422,-153.89654,-176.85144)" />
  </g>
</svg>
