<?xml version="1.0" encoding="utf-8"?>
<!-- Generator: Adobe Illustrator 15.0.1, SVG Export Plug-In . SVG Version: 6.00 Build 0)  -->
<!DOCTYPE svg PUBLIC "-//W3C//DTD SVG 1.1//EN" "http://www.w3.org/Graphics/SVG/1.1/DTD/svg11.dtd">
<svg version="1.1"
	 id="svg2" sodipodi:docname="New document 1" inkscape:version="0.48.2 r9819" xmlns:sodipodi="http://sodipodi.sourceforge.net/DTD/sodipodi-0.dtd" xmlns:inkscape="http://www.inkscape.org/namespaces/inkscape" xmlns:rdf="http://www.w3.org/1999/02/22-rdf-syntax-ns#" xmlns:svg="http://www.w3.org/2000/svg" xmlns:cc="http://creativecommons.org/ns#" xmlns:dc="http://purl.org/dc/elements/1.1/"
	 xmlns="http://www.w3.org/2000/svg" xmlns:xlink="http://www.w3.org/1999/xlink" x="0px" y="0px" width="744.094px"
	 height="1052.363px" viewBox="0 0 744.094 1052.363" enable-background="new 0 0 744.094 1052.363" xml:space="preserve">
<sodipodi:namedview  pagecolor="#ffffff" bordercolor="#666666" id="base" borderopacity="1.0" inkscape:pageopacity="0.0" inkscape:cy="520" inkscape:pageshadow="2" inkscape:zoom="1" inkscape:cx="375" inkscape:document-units="px" inkscape:current-layer="layer1" showgrid="false" inkscape:window-width="861" inkscape:window-height="703" inkscape:window-x="0" inkscape:window-y="0" inkscape:window-maximized="0">
	</sodipodi:namedview>
<path id="path2985" inkscape:connector-curvature="0" fill="#008000" d="M340.856,379.238c5.743,1.321,11.558,2.307,17.318,3.576
	c8.966,2.266,17.724,5.469,25.748,9.893c2.004,1.104,3.922,2.336,5.883,3.504c9.098,5.705,17.641,12.209,25.617,19.24
	c4.383,3.864,9.992,9.309,14.193,13.325c13.805,13.467,26.129,28.15,38.115,43.047c3.938,5.158,8.09,10.218,11.533,15.693
	c2.58,4.099,4.615,8.449,6.613,12.813c2.859,5.938,3.664,12.302,4.436,18.689c0.803,5.659,0.775,11.376,0.787,17.072
	c0.006,7.49,0.41,14.973,0.783,22.452c0.186,5.169,0.457,10.329,0.871,15.484c0.348,7.154,0.203,14.321,0.264,21.48
	c0.25,5.104-0.039,10.258,0.502,15.348c0.031,0.15,0.062,0.299,0.094,0.449c0.033,0.012,0.133,0.021,0.102,0.033
	c-4.432,1.977-8.844,3.988-13.324,5.861c-0.094,0.039-0.115-0.242-0.025-0.284c4.373-2.031,8.65-4.312,13.244-5.853
	c0.488-0.165-0.092,0.97-0.137,1.454c-0.439,6.95-0.402,13.917-0.377,20.877c0.012,5.908,0.117,11.813,0.262,17.721
	c0.043,1.56,0.084,3.118,0.119,4.679l-12.955,6.205l0,0c0.037-1.598,0.076-3.195,0.119-4.793c0.145-5.989,0.25-11.981,0.264-17.973
	c0.025-6.838,0.07-13.686-0.375-20.515c-0.045-0.442-0.531-1.081-0.137-1.327c4.199-2.615,8.787-4.637,13.246-6.838
	c0.096-0.048,0.072,0.257-0.023,0.307c-4.396,2.332-8.891,4.496-13.322,6.768c-0.029,0.015,0.068,0.004,0.104,0.006
	c0.031-0.18,0.064-0.358,0.096-0.538c0.514-5.24,0.264-10.53,0.432-15.782c-0.043-7.053-0.197-14.106-0.773-21.141
	c-0.375-5.228-0.674-10.446-0.562-15.69c-0.152-7.498-0.643-14.98-0.793-22.474c-0.16-5.627-0.377-11.253-0.965-16.857
	c-0.623-6.315-1.229-12.645-3.768-18.604c-1.373-3.29-2.031-5.031-3.672-8.274c-3.666-7.248-8.424-13.955-13.197-20.585
	c-3.863-5.133-6.467-8.687-10.57-13.734c-8.375-10.299-17.486-20.06-27.037-29.405c-2.383-2.247-4.717-4.538-7.146-6.738
	c-10.264-9.293-21.34-17.873-33.361-25.085c-2.006-1.107-3.98-2.27-6.021-3.321c-8.196-4.222-16.971-7.405-26.109-9.268
	c-6.006-1.18-12.044-2.178-18.13-2.917L340.856,379.238L340.856,379.238z"/>
</svg>
