<?xml version="1.0" encoding="UTF-8" standalone="no"?>
<!-- Created with Inkscape (http://www.inkscape.org/) -->

<svg
   xmlns:dc="http://purl.org/dc/elements/1.1/"
   xmlns:cc="http://creativecommons.org/ns#"
   xmlns:rdf="http://www.w3.org/1999/02/22-rdf-syntax-ns#"
   xmlns:svg="http://www.w3.org/2000/svg"
   xmlns="http://www.w3.org/2000/svg"
   xmlns:sodipodi="http://sodipodi.sourceforge.net/DTD/sodipodi-0.dtd"
   xmlns:inkscape="http://www.inkscape.org/namespaces/inkscape"
   width="744.09448819"
   height="1052.3622047"
   id="svg2"
   version="1.1"
   inkscape:version="0.48.2 r9819"
   sodipodi:docname="stem-eight.svg">
  <defs
     id="defs4" />
  <sodipodi:namedview
     id="base"
     pagecolor="#ffffff"
     bordercolor="#666666"
     borderopacity="1.0"
     inkscape:pageopacity="0.0"
     inkscape:pageshadow="2"
     inkscape:zoom="1"
     inkscape:cx="334"
     inkscape:cy="520"
     inkscape:document-units="px"
     inkscape:current-layer="layer7"
     showgrid="false"
     inkscape:window-width="1002"
     inkscape:window-height="764"
     inkscape:window-x="0"
     inkscape:window-y="0"
     inkscape:window-maximized="0" />
  <metadata
     id="metadata7">
    <rdf:RDF>
      <cc:Work
         rdf:about="">
        <dc:format>image/svg+xml</dc:format>
        <dc:type
           rdf:resource="http://purl.org/dc/dcmitype/StillImage" />
        <dc:title></dc:title>
      </cc:Work>
    </rdf:RDF>
  </metadata>
  <g
     inkscape:label="Layer 1"
     inkscape:groupmode="layer"
     id="layer1"
     style="display:none">
    <path
       style="fill:#008000"
       id="path2985"
       d="m 340.85629,361.23793 c 5.74307,1.40536 11.55755,2.45341 17.31886,3.80293 8.9653,2.41101 17.72283,5.81758 25.74788,10.52251 2.00251,1.17403 3.92136,2.48527 5.88204,3.7279 9.09716,6.06787 17.64015,12.98585 25.61634,20.46449 4.38396,4.1105 9.99227,9.90144 14.19357,14.17344 13.80589,14.32414 26.12933,29.94164 38.1165,45.78731 3.93671,5.48629 8.08863,10.86879 11.53355,16.69189 2.57932,4.35995 4.61338,8.98679 6.612,13.62902 2.86029,6.3151 3.66423,13.08442 4.43605,19.87897 0.80357,6.01925 0.77477,12.1002 0.78689,18.15979 0.006,7.96586 0.4099,15.92545 0.7837,23.88081 0.18605,5.49738 0.45676,10.98503 0.87084,16.46977 0.34664,7.60989 0.20324,15.23216 0.26415,22.84829 0.25013,5.42894 -0.0394,10.9092 0.50185,16.32369 0.0311,0.15986 0.0622,0.31971 0.0933,0.47957 0.0337,0.0118 0.13334,0.02 0.10108,0.0353 -4.43089,2.10025 -8.84359,4.2419 -13.32473,6.2327 -0.0923,0.041 -0.11527,-0.25733 -0.0247,-0.30206 4.37395,-2.15969 8.64979,-4.58589 13.24417,-6.22523 0.48802,-0.17414 -0.0914,1.03228 -0.13703,1.54842 -0.4383,7.39271 -0.40281,14.8024 -0.37735,22.20479 0.0124,6.28386 0.11738,12.56657 0.26315,18.84855 0.043,1.65873 0.0826,3.31753 0.11888,4.97641 0,0 -12.95455,6.60067 -12.95455,6.60067 l 0,0 c 0.0364,-1.69925 0.0759,-3.39843 0.11885,-5.09753 0.1444,-6.37139 0.25014,-12.74348 0.26309,-19.11669 0.025,-7.27455 0.0702,-14.55737 -0.3755,-21.82178 -0.0453,-0.47035 -0.52987,-1.15006 -0.13596,-1.41104 4.19924,-2.78217 8.78637,-4.93174 13.24561,-7.27466 0.0968,-0.0509 0.0725,0.27358 -0.0228,0.3273 -4.39669,2.47935 -8.89048,4.78255 -13.32245,7.19826 -0.0304,0.0166 0.0691,0.005 0.10364,0.007 0.0319,-0.19106 0.0638,-0.38212 0.0957,-0.57318 0.51351,-5.57279 0.26435,-11.20051 0.43055,-16.78712 -0.0428,-7.50133 -0.19678,-15.00374 -0.77282,-22.48592 -0.37484,-5.56131 -0.67445,-11.1104 -0.56263,-16.68938 -0.15184,-7.97371 -0.64214,-15.93293 -0.79308,-23.90495 -0.16011,-5.98425 -0.37618,-11.96883 -0.96367,-17.92942 -0.6236,-6.71799 -1.22936,-13.44982 -3.76873,-19.78867 -1.37203,-3.49891 -2.03147,-5.35145 -3.67118,-8.79988 -3.66586,-7.70952 -8.42443,-14.84409 -13.19828,-21.89627 -3.86301,-5.45942 -6.46618,-9.23863 -10.57031,-14.60761 -8.37427,-10.95512 -17.48571,-21.33785 -27.03632,-31.27823 -2.38224,-2.38884 -4.71663,-4.82637 -7.14672,-7.16653 -10.26442,-9.88458 -21.33903,-19.01061 -33.36034,-26.6815 -2.00748,-1.17766 -3.9814,-2.4145 -6.02245,-3.53297 -8.19509,-4.4908 -16.97136,-7.87641 -26.10824,-9.8577 -6.00653,-1.25524 -12.0446,-2.31659 -18.13036,-3.10359 0,0 12.03793,-8.48774 12.03793,-8.48774 z"
       inkscape:connector-curvature="0" />
  </g>
  <g
     inkscape:groupmode="layer"
     id="layer4"
     inkscape:label="Layer 6"
     style="display:none">
    <path
       style="fill:#a02c2c"
       id="path3142"
       d="m 373.68371,329.51859 c 1.84142,1.14697 3.70448,2.2606 5.60135,3.31952 3.24881,2.36904 5.09822,6.05025 7.19905,9.37626 4.4126,7.80535 10.76272,14.24422 16.83065,20.75803 8.95852,9.6279 17.65113,19.49648 26.3596,29.34944 1.79097,1.96329 3.57033,3.93721 5.37289,5.88985 5.32444,5.76775 4.85259,5.23749 10.17224,10.59437 2.11916,2.13399 5.60663,5.53068 7.65435,7.88676 0.91716,1.05527 1.73519,2.19276 2.60278,3.28913 4.45394,6.87338 6.26602,14.95577 8.79273,22.64482 2.0996,6.40575 4.84574,12.56893 7.72396,18.6555 1.63239,3.76543 3.26285,7.52997 4.8357,11.32079 1.74535,4.16936 2.55392,8.65376 3.64472,13.02247 1.40403,5.82041 3.37755,11.46162 5.3948,17.08863 2.57955,7.24505 4.00129,14.79739 5.50217,22.31612 2.08775,9.75577 2.11019,19.84553 2.37782,29.78337 0.23335,9.18573 0.39538,18.37295 0.55519,27.56018 0.0882,4.61868 0.16319,9.23723 0.13731,13.85684 -0.0474,4.27608 -0.038,8.55254 0.0196,12.82843 0.043,2.59506 0.077,5.19023 0.0932,7.7856 -0.0127,2.29355 0.001,4.58744 -0.0192,6.88098 -0.0336,2.95415 -0.026,5.90852 -0.0448,8.86279 -0.01,2.93848 0.0145,5.87673 0.0409,8.81506 0.0153,2.19507 0.0407,4.39025 0.0162,6.5853 -0.0109,2.24984 0.002,4.49971 0.008,6.74954 0.004,1.3667 0.005,2.7334 0.007,4.1001 0,0 -13.12258,6.68629 -13.12258,6.68629 l 0,0 c 10e-4,-1.36894 0.003,-2.73787 0.007,-4.1068 0.006,-2.2525 0.0188,-4.50503 0.008,-6.75754 -0.0248,-2.20056 10e-4,-4.40125 0.0162,-6.60183 0.0263,-2.95223 0.0508,-5.90438 0.0409,-8.85676 -0.0188,-2.93904 -0.0112,-5.87818 -0.0448,-8.81709 -0.0206,-2.28697 -0.007,-4.57428 -0.0194,-6.86126 0.0161,-2.62707 0.05,-5.25394 0.0931,-7.88071 0.0577,-4.28505 0.0692,-8.57061 0.0304,-12.85593 -0.0137,-4.67417 0.0901,-9.34658 0.18606,-14.01954 0.15995,-9.27497 0.27135,-18.55351 0.0602,-27.82871 -0.32213,-9.82627 -0.65922,-19.70488 -2.74598,-29.35002 -1.31661,-7.46467 -2.93563,-14.8791 -5.62711,-21.98699 -2.08707,-5.6558 -3.93841,-11.37261 -5.43623,-17.21655 -1.16608,-4.2636 -2.23089,-8.58229 -3.88916,-12.68797 -1.44988,-3.82772 -3.05185,-7.59369 -4.54527,-11.40453 -2.71076,-6.23781 -5.41575,-12.48186 -7.49605,-18.96701 -2.3861,-7.57791 -4.35461,-15.4158 -8.54262,-22.25392 -7.26933,-10.20122 -16.73403,-18.59286 -24.86604,-28.08046 -8.94882,-9.67446 -17.91367,-19.33392 -26.85058,-29.01902 -6.2323,-6.52885 -12.87993,-12.84609 -17.66961,-20.56099 -2.02137,-3.12868 -3.97344,-6.52112 -7.19471,-8.56317 -1.86226,-1.10779 -3.72123,-2.23181 -5.67919,-3.16372 0,0 12.41048,-8.16565 12.41048,-8.16565 z"
       inkscape:connector-curvature="0" />
  </g>
  <g
     inkscape:groupmode="layer"
     id="layer5"
     inkscape:label="Layer 7"
     style="display:none">
    <path
       style="fill:#a02c2c"
       id="path3164"
       d="m 400.65902,312.25851 c 3.46538,1.37724 6.88352,2.96259 9.91526,5.14232 0.60325,0.56453 1.26166,1.07537 1.80973,1.69361 5.5764,6.29033 8.58236,15.68535 11.46125,23.38537 6.22843,17.88514 11.33549,36.12356 17.43309,54.05148 4.09158,11.87316 8.38014,23.6886 11.76098,35.78978 2.15319,9.80127 4.61003,19.50409 7.75827,29.03429 1.99966,6.48631 5.71312,12.26581 7.38412,18.86081 0.92441,3.64841 1.49606,8.00275 2.06309,11.69744 1.79862,12.16236 3.47299,24.34214 5.43715,36.47948 1.29571,9.11614 2.24421,18.276 3.32226,27.41881 1.11216,9.03117 2.62963,18.00894 3.61885,27.05429 0.77044,7.57449 1.79017,15.11528 2.80192,22.65949 0.72551,5.95604 0.62798,11.96713 0.72078,17.95514 0.064,4.07035 0.27821,8.13755 0.30463,12.20843 0.024,2.9034 -0.0585,5.80504 0.0685,8.70668 0.26905,3.84349 0.54182,7.68575 0.74336,11.53344 0.0794,1.4746 0.13218,2.95033 0.18101,4.42619 0,0 -12.91323,6.60363 -12.91323,6.60363 l 0,0 c 0.005,-1.49059 0.0104,-2.98128 -0.0176,-4.47172 -0.0936,-3.82566 -0.28787,-7.6521 -0.79043,-11.44876 -0.3104,-2.91627 -0.11764,-5.86044 -0.15036,-8.79059 0.043,-4.15992 0.26582,-8.31663 0.26144,-12.4776 -0.0312,-5.9333 -0.21663,-11.86781 -0.75655,-17.77908 -0.68613,-7.65975 -1.33522,-15.3246 -2.21351,-22.96471 -1.06431,-9.02973 -2.5244,-18.00536 -3.65321,-27.02753 -1.11049,-9.1726 -2.1199,-18.35106 -3.01116,-27.54679 -1.54289,-12.21319 -3.2202,-24.42139 -5.20767,-36.56906 -0.74994,-4.17761 -1.19492,-7.27092 -2.33615,-11.33264 -1.83316,-6.52435 -5.11513,-12.50884 -7.25459,-18.92395 -3.12144,-9.51821 -5.91839,-19.14185 -8.15194,-28.91061 -3.04003,-12.30682 -5.83777,-24.68979 -9.90845,-36.71309 -5.80254,-17.933 -11.41181,-35.95057 -18.18487,-53.54684 -3.66793,-8.36582 -7.29999,-17.45634 -14.53792,-23.42386 -3.05554,-2.00262 -6.44993,-3.70068 -10.07994,-4.32727 0,0 12.12186,-8.44658 12.12186,-8.44658 z"
       inkscape:connector-curvature="0" />
  </g>
  <g
     inkscape:groupmode="layer"
     id="layer6"
     inkscape:label="Layer 8"
     style="display:none">
    <path
       style="fill:#a02c2c"
       id="path3186"
       d="m 443.58402,299.60555 c -0.63786,7.06443 0.46489,14.16569 1.43279,21.15054 1.42346,8.48735 2.99846,16.94099 4.3194,25.44487 1.11317,9.10297 2.11259,18.22099 2.96718,27.35197 1.20219,13.57995 2.4562,27.15427 4.36926,40.65466 2.1235,13.97108 6.8516,27.27842 12.53646,40.14979 2.32488,5.01828 4.15115,10.27473 4.87376,15.77907 0.38999,2.97063 0.46807,6.21394 0.60268,9.19378 0.1588,9.47266 0.30752,18.93359 0.90671,28.39044 0.61475,8.31376 1.61794,16.5966 2.70802,24.86001 0.72854,6.96525 1.80663,13.88265 2.81536,20.81038 0.94479,6.87519 1.8484,13.74935 2.52968,20.65566 0.55009,7.29449 1.77021,14.51135 2.92572,21.72721 1.03779,6.64085 1.28257,13.35629 1.51687,20.06133 0.19106,6.17677 0.1356,12.35724 0.0543,18.53536 0.0119,6.05212 -0.37727,12.0946 -0.54188,18.14304 0.0454,2.93346 -0.20962,5.82777 -0.639,8.72322 0,0 -13.1241,6.43202 -13.1241,6.43202 l 0,0 c 0.48253,-2.92495 1.17804,-5.80642 1.11754,-8.79793 0.48784,-6.07478 1.04498,-12.16203 0.94156,-18.26223 -0.0703,-6.15507 -0.0777,-12.31052 -0.1126,-18.46576 -0.0976,-6.66893 -0.38727,-13.34697 -1.3398,-19.95605 -1.05977,-7.25253 -2.25126,-14.49096 -2.92461,-21.79353 -0.83275,-6.86506 -1.50539,-13.7514 -2.51552,-20.59383 -1.14892,-6.94506 -2.08237,-13.9113 -2.68651,-20.92622 -0.96273,-8.32177 -2.05779,-16.63888 -2.61861,-24.99797 -0.59462,-9.48121 -0.36199,-18.97751 -0.77536,-28.46583 -0.60312,-8.46426 -1.7415,-16.81857 -5.05912,-24.71494 -4.84327,-13.34373 -9.70105,-26.75886 -11.84057,-40.8608 -2.09685,-13.36889 -3.86864,-26.78055 -5.28719,-40.2394 -0.98514,-9.03359 -2.23557,-18.02978 -3.44172,-27.03547 -1.18264,-8.56659 -2.4281,-17.12283 -3.94305,-25.63868 -1.10627,-6.84838 -2.1968,-13.70576 -2.93568,-20.60527 0,0 13.16804,-6.70944 13.16804,-6.70944 z"
       inkscape:connector-curvature="0" />
  </g>
  <g
     inkscape:groupmode="layer"
     id="layer7"
     inkscape:label="Layer 9">
    <path
       style="fill:#a02c2c"
       id="path3208"
       d="m 476.58402,302.60555 c -0.84775,9.76479 -1.01017,19.57655 -1.21545,29.37122 -0.0682,19.15447 -0.23896,38.30352 -0.59854,57.45523 -0.72373,20.45464 0.80369,40.87091 2.42287,61.24084 1.38876,17.47117 1.3476,17.3237 2.63138,34.98728 2.2263,37.5962 2.75086,75.26636 3.9508,112.90389 0.72906,18.72564 1.01194,37.49236 2.79973,56.15673 0.46827,4.69964 1.04517,9.39534 1.83641,14.05284 0.55721,3.27987 0.26674,2.29259 1.17877,4.54975 0,0 -12.67301,6.80376 -12.67301,6.80376 l 0,0 c -0.45295,-6.51804 -1.37168,-12.99577 -1.67599,-19.52589 -1.0149,-19.33969 0.68796,-38.65945 0.65232,-58.00896 0.25683,-37.71199 -0.42992,-75.44479 -3.54878,-113.04733 -2.64753,-31.72943 -6.27688,-63.39679 -7.11456,-95.25201 -0.3627,-18.94839 -0.53027,-37.89405 -0.59854,-56.84529 -0.20091,-9.38142 -0.34147,-18.78435 -1.21545,-28.13262 0,0 13.16804,-6.70944 13.16804,-6.70944 z"
       inkscape:connector-curvature="0" />
  </g>
</svg>
