<?xml version="1.0" encoding="UTF-8" standalone="no"?>
<!-- Created with Inkscape (http://www.inkscape.org/) -->

<svg
   xmlns:dc="http://purl.org/dc/elements/1.1/"
   xmlns:cc="http://creativecommons.org/ns#"
   xmlns:rdf="http://www.w3.org/1999/02/22-rdf-syntax-ns#"
   xmlns:svg="http://www.w3.org/2000/svg"
   xmlns="http://www.w3.org/2000/svg"
   xmlns:sodipodi="http://sodipodi.sourceforge.net/DTD/sodipodi-0.dtd"
   xmlns:inkscape="http://www.inkscape.org/namespaces/inkscape"
   width="744.09448819"
   height="1052.3622047"
   id="svg2"
   version="1.1"
   inkscape:version="0.48.2 r9819"
   sodipodi:docname="New document 1">
  <defs
     id="defs4" />
  <sodipodi:namedview
     id="base"
     pagecolor="#ffffff"
     bordercolor="#666666"
     borderopacity="1.0"
     inkscape:pageopacity="0.0"
     inkscape:pageshadow="2"
     inkscape:zoom="1"
     inkscape:cx="375"
     inkscape:cy="520"
     inkscape:document-units="px"
     inkscape:current-layer="layer1"
     showgrid="false"
     inkscape:window-width="861"
     inkscape:window-height="703"
     inkscape:window-x="0"
     inkscape:window-y="0"
     inkscape:window-maximized="0" />
  <metadata
     id="metadata7">
    <rdf:RDF>
      <cc:Work
         rdf:about="">
        <dc:format>image/svg+xml</dc:format>
        <dc:type
           rdf:resource="http://purl.org/dc/dcmitype/StillImage" />
        <dc:title></dc:title>
      </cc:Work>
    </rdf:RDF>
  </metadata>
  <g
     inkscape:label="Layer 1"
     inkscape:groupmode="layer"
     id="layer1">
    <path
       style="fill:#008000"
       id="path2985"
       d="m 340.85629,361.23793 c 5.74307,1.40536 11.55755,2.45341 17.31886,3.80293 8.9653,2.41101 17.72283,5.81758 25.74788,10.52251 2.00251,1.17403 3.92136,2.48527 5.88204,3.7279 9.09716,6.06787 17.64015,12.98585 25.61634,20.46449 4.38396,4.1105 9.99227,9.90144 14.19357,14.17344 13.80589,14.32414 26.12933,29.94164 38.1165,45.78731 3.93671,5.48629 8.08863,10.86879 11.53355,16.69189 2.57932,4.35995 4.61338,8.98679 6.612,13.62902 2.86029,6.3151 3.66423,13.08442 4.43605,19.87897 0.80357,6.01925 0.77477,12.1002 0.78689,18.15979 0.006,7.96586 0.4099,15.92545 0.7837,23.88081 0.18605,5.49738 0.45676,10.98503 0.87084,16.46977 0.34664,7.60989 0.20324,15.23216 0.26415,22.84829 0.25013,5.42894 -0.0394,10.9092 0.50185,16.32369 0.0311,0.15986 0.0622,0.31971 0.0933,0.47957 0.0337,0.0118 0.13334,0.02 0.10108,0.0353 -4.43089,2.10025 -8.84359,4.2419 -13.32473,6.2327 -0.0923,0.041 -0.11527,-0.25733 -0.0247,-0.30206 4.37395,-2.15969 8.64979,-4.58589 13.24417,-6.22523 0.48802,-0.17414 -0.0914,1.03228 -0.13703,1.54842 -0.4383,7.39271 -0.40281,14.8024 -0.37735,22.20479 0.0124,6.28386 0.11738,12.56657 0.26315,18.84855 0.043,1.65873 0.0826,3.31753 0.11888,4.97641 0,0 -12.95455,6.60067 -12.95455,6.60067 l 0,0 c 0.0364,-1.69925 0.0759,-3.39843 0.11885,-5.09753 0.1444,-6.37139 0.25014,-12.74348 0.26309,-19.11669 0.025,-7.27455 0.0702,-14.55737 -0.3755,-21.82178 -0.0453,-0.47035 -0.52987,-1.15006 -0.13596,-1.41104 4.19924,-2.78217 8.78637,-4.93174 13.24561,-7.27466 0.0968,-0.0509 0.0725,0.27358 -0.0228,0.3273 -4.39669,2.47935 -8.89048,4.78255 -13.32245,7.19826 -0.0304,0.0166 0.0691,0.005 0.10364,0.007 0.0319,-0.19106 0.0638,-0.38212 0.0957,-0.57318 0.51351,-5.57279 0.26435,-11.20051 0.43055,-16.78712 -0.0428,-7.50133 -0.19678,-15.00374 -0.77282,-22.48592 -0.37484,-5.56131 -0.67445,-11.1104 -0.56263,-16.68938 -0.15184,-7.97371 -0.64214,-15.93293 -0.79308,-23.90495 -0.16011,-5.98425 -0.37618,-11.96883 -0.96367,-17.92942 -0.6236,-6.71799 -1.22936,-13.44982 -3.76873,-19.78867 -1.37203,-3.49891 -2.03147,-5.35145 -3.67118,-8.79988 -3.66586,-7.70952 -8.42443,-14.84409 -13.19828,-21.89627 -3.86301,-5.45942 -6.46618,-9.23863 -10.57031,-14.60761 -8.37427,-10.95512 -17.48571,-21.33785 -27.03632,-31.27823 -2.38224,-2.38884 -4.71663,-4.82637 -7.14672,-7.16653 -10.26442,-9.88458 -21.33903,-19.01061 -33.36034,-26.6815 -2.00748,-1.17766 -3.9814,-2.4145 -6.02245,-3.53297 -8.19509,-4.4908 -16.97136,-7.87641 -26.10824,-9.8577 -6.00653,-1.25524 -12.0446,-2.31659 -18.13036,-3.10359 0,0 12.03793,-8.48774 12.03793,-8.48774 z"
       inkscape:connector-curvature="0" />
  </g>
</svg>
